<svg xmlns="http://www.w3.org/2000/svg" width="24" height="24" viewBox="0 0 24 24">
    <g fill="none" fill-rule="evenodd">
        <g>
            <g>
                <g>
                    <g>
                        <g>
                            <path d="M0 0L24 0 24 24 0 24z" transform="translate(-326.000000, -837.000000) translate(0.000000, 802.000000) translate(300.000000, 28.000000) translate(2.000000, 7.000000) translate(24.000000, 0.000000)"/>
                            <path fill="#6D7378" fill-rule="nonzero" d="M11.5 20c.894 0 1.625-.738 1.625-1.641h-3.25c0 .903.731 1.641 1.625 1.641zm4.875-4.923v-4.103c0-2.519-1.324-4.627-3.656-5.185V5.23C12.719 4.55 12.174 4 11.5 4s-1.219.55-1.219 1.23v.559c-2.324.558-3.656 2.658-3.656 5.185v4.103L5 16.717v.821h13v-.82l-1.625-1.641zm-1.16 1.436h-7.43v-5.627c0-2.325 1.403-4.22 3.715-4.22s3.714 1.895 3.714 4.22v5.627z" transform="translate(-326.000000, -837.000000) translate(0.000000, 802.000000) translate(300.000000, 28.000000) translate(2.000000, 7.000000) translate(24.000000, 0.000000)"/>
                        </g>
                    </g>
                </g>
            </g>
        </g>
    </g>
</svg>
