<svg xmlns="http://www.w3.org/2000/svg" width="24" height="24" viewBox="0 0 24 24">
    <g fill="none" fill-rule="evenodd">
        <g>
            <g>
                <g>
                    <g>
                        <g>
                            <path d="M0 0L24 0 24 24 0 24z" transform="translate(-251.000000, -837.000000) translate(0.000000, 802.000000) translate(225.000000, 28.000000) translate(9.000000, 7.000000) translate(17.000000, 0.000000)"/>
                            <g fill="#6D7378" fill-rule="nonzero">
                                <path d="M16.066 11.665c-.883 0-1.63.596-1.86 1.408H12.34v-2.061h1.906c2.07 0 3.754-1.686 3.754-3.758 0-1.662-1.1-3.122-2.664-3.597-.472-1.894-2.18-3.252-4.157-3.252-.767 0-1.5.198-2.149.576C8.344.353 7.444 0 6.498 0 4.47 0 2.812 1.619 2.746 3.633 1.14 4.083 0 5.553 0 7.253c0 2.073 1.684 3.759 3.754 3.759H5.66v2.06H3.793c-.23-.81-.976-1.407-1.86-1.407-1.066 0-1.933.868-1.933 1.936 0 1.067.867 1.935 1.934 1.935.883 0 1.63-.596 1.86-1.407h2.393c.292 0 .528-.237.528-.528v-2.589h1.758v3.19c-.81.23-1.407.978-1.407 1.862C7.066 17.132 7.934 18 9 18c1.066 0 1.934-.868 1.934-1.936 0-.884-.596-1.631-1.407-1.862v-3.19h1.758v2.589c0 .291.236.528.527.528h2.395c.23.811.976 1.407 1.86 1.407 1.066 0 1.933-.868 1.933-1.935 0-1.068-.867-1.936-1.934-1.936zM1.934 14.481c-.485 0-.88-.395-.88-.88s.395-.88.88-.88c.484 0 .879.395.879.88s-.395.88-.88.88zm7.945 1.583c0 .485-.394.88-.879.88s-.879-.395-.879-.88.394-.88.879-.88.879.395.879.88zM3.754 9.956c-1.488 0-2.7-1.212-2.7-2.702 0-1.332.992-2.482 2.307-2.674.278-.04.475-.292.45-.571-.009-.083-.012-.167-.012-.25 0-1.49 1.21-2.703 2.7-2.703.793 0 1.542.345 2.054.948.18.212.492.248.715.083.553-.41 1.214-.626 1.911-.626 1.604 0 2.938 1.178 3.187 2.711.036.217.201.39.416.433 1.254.254 2.163 1.368 2.163 2.649 0 1.49-1.21 2.702-2.7 2.702H3.756zm12.312 4.525c-.484 0-.878-.395-.878-.88s.394-.88.878-.88c.485 0 .88.395.88.88s-.395.88-.88.88z" transform="translate(-251.000000, -837.000000) translate(0.000000, 802.000000) translate(225.000000, 28.000000) translate(9.000000, 7.000000) translate(17.000000, 0.000000) translate(3.000000, 3.000000)"/>
                            </g>
                        </g>
                    </g>
                </g>
            </g>
        </g>
    </g>
</svg>
