<svg width="60" height="60" xmlns="http://www.w3.org/2000/svg">
    <g fill="#FFF" fill-rule="nonzero">
        <path d="M38.83 0C27.154 0 17.657 9.495 17.657 21.166a21.03 21.03 0 0 0 2.85 10.594L1.6 50.663a5.476 5.476 0 0 0 0 7.737A5.456 5.456 0 0 0 5.47 60a5.455 5.455 0 0 0 3.87-1.6l18.91-18.906A21.045 21.045 0 0 0 38.83 42.33C50.503 42.331 60 32.836 60 21.165 60 9.495 50.503 0 38.83 0zM6.85 55.912c-.76.761-2 .761-2.76 0-.762-.761-.762-2 0-2.761l1.186-1.187 2.762 2.761-1.187 1.187zm3.676-3.675-2.761-2.76L9.67 47.57l2.762 2.76-1.907 1.906zm4.396-4.394-2.762-2.76 10.396-10.394a21.356 21.356 0 0 0 2.763 2.76L14.922 47.842zm23.907-9.03c-9.733 0-17.65-7.917-17.65-17.647 0-9.73 7.917-17.647 17.65-17.647 9.733 0 17.651 7.916 17.651 17.647 0 9.73-7.918 17.646-17.65 17.646z"/>
        <path d="M48.158 19.185a1.76 1.76 0 0 0-1.76 1.76v7.646a1.76 1.76 0 0 0 3.52 0v-7.646a1.76 1.76 0 0 0-1.76-1.76zM42.334 11.33a1.76 1.76 0 0 0-1.76 1.759V28.59a1.76 1.76 0 0 0 3.52 0V13.089a1.76 1.76 0 0 0-1.76-1.76zM36.429 15.257a1.76 1.76 0 0 0-1.76 1.76v11.679a1.76 1.76 0 0 0 3.52 0v-11.68a1.76 1.76 0 0 0-1.76-1.759zM30.273 11.434a1.76 1.76 0 0 0-1.76 1.76v15.502a1.76 1.76 0 0 0 3.52 0V13.194a1.76 1.76 0 0 0-1.76-1.76z"/>
    </g>
</svg>
