<svg width="87" height="78" xmlns="http://www.w3.org/2000/svg">
    <g fill="#DBFFFB" fill-rule="nonzero">
        <path d="M86.72 44.474c-.718-2.182-2.634-3.602-4.746-3.844 2.338-9.86-6.063-19.805-18.699-18.517-5.48.559-11.143 3.091-16.834 7.528a4.78 4.78 0 0 1-5.881 0c-5.716-4.456-11.403-6.992-16.901-7.536-.7-.07-1.325.437-1.395 1.131a1.266 1.266 0 0 0 1.142 1.383c5.008.495 10.25 2.853 15.578 7.007a7.34 7.34 0 0 0 9.032 0c5.307-4.136 10.528-6.491 15.52-7 11.296-1.152 18.428 7.918 15.693 16.363-6.403 2.206-10.759 7.568-13.072 12.606a30.54 30.54 0 0 0-15.297-1.684c-2.256.334-4.49.93-6.638 1.774a1.972 1.972 0 0 1-1.444 0 30.345 30.345 0 0 0-6.639-1.774 30.535 30.535 0 0 0-15.296 1.684c-2.313-5.039-6.67-10.4-13.072-12.606-1.018-3.134-.7-6.452.915-9.408 1.836-3.358 5.184-5.789 9.185-6.67a1.263 1.263 0 0 0 .968-1.506 1.275 1.275 0 0 0-1.52-.96c-4.723 1.04-8.686 3.931-10.874 7.933A14.485 14.485 0 0 0 5.03 40.63a5.708 5.708 0 0 0-1.926.575 5.6 5.6 0 0 0-2.824 3.27c-.97 2.946.66 6.126 3.634 7.088 4.746 1.534 7.627 7.876 7.627 10.256 0 1.66.74 3.19 1.943 4.233l-2.656 6.019c-.943 2.138.045 4.639 2.205 5.574 2.19.944 4.685-.068 5.62-2.182l3.005-6.812c10.777 2.255 21.685 2.892 32.857 1.709a1.266 1.266 0 0 0 1.132-1.39 1.272 1.272 0 0 0-1.403-1.122c-3.58.379-7.194.57-10.744.57-8.995 0-18.112-1.214-27.097-3.61a3.106 3.106 0 0 1-2.313-2.99c0-3.392-3.563-10.775-9.386-12.657-1.637-.53-2.535-2.28-2-3.904a3.084 3.084 0 0 1 1.554-1.8 3.129 3.129 0 0 1 2.384-.183c6.773 2.19 11.04 8.464 12.775 13.605a4.768 4.768 0 0 0 3.496 3.126c6.853 1.474 13.78 2.221 20.587 2.221s13.734-.747 20.587-2.22a4.768 4.768 0 0 0 3.496-3.127c1.735-5.141 6.002-11.416 12.775-13.605 1.641-.53 3.403.356 3.939 1.983.534 1.623-.364 3.374-2.001 3.904-5.823 1.882-9.386 9.265-9.386 12.657 0 1.398-.951 2.627-2.313 2.99-3.47.926-7.006 1.684-10.51 2.255a1.265 1.265 0 0 0-1.05 1.45c.113.689.768 1.155 1.463 1.042a109.96 109.96 0 0 0 4.842-.903l3.006 6.811c.935 2.116 3.43 3.125 5.622 2.181 2.157-.934 3.145-3.435 2.202-5.573l-2.656-6.02a5.606 5.606 0 0 0 1.943-4.233c0-2.38 2.881-8.722 7.627-10.256 2.974-.96 4.604-4.14 3.634-7.088zm-67.598 23.62-2.805 6.356a1.726 1.726 0 0 1-2.266.88 1.7 1.7 0 0 1-.887-2.247l2.575-5.835h.001c1.126.3 2.253.581 3.382.845zm44.424-10.557C56.871 58.973 50.126 59.7 43.5 59.7c-6.626 0-13.37-.728-20.046-2.164a2.215 2.215 0 0 1-1.62-1.459l-.047-.135c4.432-1.668 9.348-2.215 13.977-1.533 2.064.305 4.108.851 6.076 1.624 1.07.42 2.25.42 3.32 0a27.769 27.769 0 0 1 6.075-1.624c4.63-.682 9.547-.135 13.978 1.534l-.047.135a2.216 2.216 0 0 1-1.62 1.458zm10.29 15.546a1.7 1.7 0 0 1-.885 2.246 1.726 1.726 0 0 1-2.268-.878l-2.806-6.36c1.132-.264 2.26-.544 3.383-.843h.001l2.575 5.835z"/>
        <path d="M22.32 40.32h1.36v1.36a1.32 1.32 0 0 0 2.64 0v-1.36h1.36a1.32 1.32 0 0 0 0-2.64h-1.36v-1.36a1.32 1.32 0 0 0-2.64 0v1.36h-1.36a1.32 1.32 0 0 0 0 2.64zM62 35c-.729 0-1.32.59-1.32 1.32v1.36h-1.36a1.32 1.32 0 0 0 0 2.64h1.36v1.36a1.32 1.32 0 0 0 2.64 0v-1.36h1.36a1.32 1.32 0 0 0 0-2.64h-1.36v-1.36c0-.73-.591-1.32-1.32-1.32zM56.38 9.142c1.342 1.328 2.398 1.974 3.169 2.447a2.772 2.772 0 0 0 2.902 0c.77-.473 1.827-1.12 3.168-2.447 1.496-1.48 2.223-2.779 2.36-4.208a4.575 4.575 0 0 0-1.316-3.691A4.22 4.22 0 0 0 61 .955a4.22 4.22 0 0 0-5.663.288 4.574 4.574 0 0 0-1.316 3.69c.136 1.43.864 2.728 2.36 4.209zm.811-6.029c.65-.647 1.783-.643 2.399.143a1.78 1.78 0 0 0 1.41.69 1.78 1.78 0 0 0 1.41-.69c.612-.781 1.745-.794 2.399-.143.413.412.609.97.552 1.57-.074.77-.564 1.567-1.59 2.582-1.124 1.114-1.993 1.646-2.691 2.074-.05.03-.11.03-.16 0-.698-.428-1.567-.96-2.692-2.074-1.025-1.015-1.515-1.811-1.589-2.582a1.917 1.917 0 0 1 .552-1.57zM37.91 18.34c1.677 1.725 3 2.567 3.968 3.182.5.319 1.06.478 1.622.478.56 0 1.122-.16 1.622-.477.967-.616 2.291-1.458 3.968-3.183 1.832-1.883 2.721-3.517 2.885-5.3.155-1.694-.41-3.344-1.553-4.526-1.89-1.956-4.902-2.025-6.856-.157a4.79 4.79 0 0 0-.066.064l-.066-.064c-1.954-1.868-4.966-1.8-6.856.157-1.142 1.182-1.708 2.832-1.553 4.527.163 1.782 1.053 3.416 2.884 5.3zm.41-8c.483-.5 1.129-.753 1.773-.753 1.99 0 1.78 1.723 3.407 1.723.57 0 1.099-.269 1.451-.737a2.446 2.446 0 0 1 3.73-.233c.614.636.919 1.531.834 2.456-.105 1.138-.77 2.284-2.16 3.713-1.474 1.515-2.61 2.237-3.521 2.817a.616.616 0 0 1-.668 0c-.912-.58-2.047-1.302-3.52-2.818-1.39-1.428-2.057-2.574-2.161-3.712-.085-.925.22-1.82.834-2.456z"/>
    </g>
</svg>
