<svg width="79" height="79" xmlns="http://www.w3.org/2000/svg">
    <g fill="#FFF" fill-rule="nonzero">
        <path d="M77.457 0H43.37a1.543 1.543 0 0 0-1.091 2.634l5.027 5.027L.452 54.515a1.543 1.543 0 0 0 1.091 2.634h20.308v20.308a1.543 1.543 0 0 0 2.634 1.091L39.3 63.732a1.543 1.543 0 0 0-2.182-2.182L24.937 73.732V55.606c0-.852-.691-1.543-1.543-1.543H5.268L50.579 8.752a1.543 1.543 0 0 0 0-2.182l-3.484-3.484h28.819v28.819L72.43 28.42a1.543 1.543 0 0 0-2.182 0L44.91 53.758a1.543 1.543 0 0 0 2.182 2.182l24.246-24.246 5.027 5.027A1.544 1.544 0 0 0 79 35.63V1.543C79 .691 78.31 0 77.457 0z"/>
        <path d="M43.573 57.427a1.458 1.458 0 0 0-2.061 0l-.085.085a1.458 1.458 0 0 0 2.061 2.061l.085-.085c.57-.57.57-1.492 0-2.061zM47.525 17.475a1.623 1.623 0 0 0-2.294 0l-8.756 8.756a1.622 1.622 0 0 0 2.294 2.294l8.756-8.756a1.622 1.622 0 0 0 0-2.294zM50.557 14.432a1.493 1.493 0 0 0-2.111.01l-.014.015a1.493 1.493 0 1 0 2.122 2.1l.014-.014a1.493 1.493 0 0 0-.011-2.111z"/>
    </g>
</svg>
