<svg width="24" height="24" xmlns="http://www.w3.org/2000/svg">
    <g fill="none" fill-rule="evenodd">
        <path d="M0 0h24v24H0z"/>
        <path d="M12 3.845c.12 0 .241.042.335.127l8.367 7.527-.001.003-.001-.002h-2.2V19a.498.498 0 0 1-.147.353.498.498 0 0 1-.353.147h-3a.498.498 0 0 1-.353-.147A.498.498 0 0 1 14.5 19v-5.5h-5V19a.498.498 0 0 1-.147.353A.498.498 0 0 1 9 19.5H6a.498.498 0 0 1-.353-.147A.498.498 0 0 1 5.5 19v-7.5l-2.077.003 8.24-7.53a.5.5 0 0 1 .247-.12z" stroke="#6D7378"/>
    </g>
</svg>
