<svg xmlns="http://www.w3.org/2000/svg" width="250" height="78" viewBox="0 0 250 78">
    <g fill="none" fill-rule="evenodd">
        <g fill-rule="nonzero">
            <g>
                <path fill="#FFF" d="M88.582 71.21c-3.48 3.379-7.138 4.707-11.598 4.707-8.735 0-15.993-5.179-15.993-15.761 0-10.583 7.26-15.762 15.993-15.762 4.282 0 7.571 1.207 10.863 4.407l-4.695 4.896c-1.656-1.49-3.807-2.327-6.046-2.352-5.006 0-8.669 3.624-8.669 8.816 0 5.67 3.906 8.695 8.566 8.695 2.38 0 4.76-.664 6.594-2.47l4.985 4.825zM122.4 60.383c0 8.576-5.925 15.534-15.702 15.534-9.778 0-15.63-6.945-15.63-15.534 0-8.59 5.983-15.535 15.559-15.535 9.575 0 15.766 7.02 15.766 15.535m-23.87 0c0 4.528 2.746 8.756 8.188 8.756 5.443 0 8.189-4.239 8.189-8.756 0-4.518-3.183-8.809-8.186-8.809-5.372 0-8.189 4.345-8.189 8.817M149.686 75.917V60.334c0-4.528-2.503-7.968-7.266-7.968-4.578 0-7.695 3.804-7.695 8.333v15.218h-7.386v-30.77h7.386v4.937c2.852-2.97 5.858-4.423 9.64-4.423 7.098 0 12.764 5.255 12.764 14.595v15.642l-7.443.02zM169.887 62.872c.475 3.68 3.726 6.34 8.975 6.34 2.746 0 6.349-1.026 8.058-2.775l4.757 4.65c-3.174 3.259-8.36 4.83-12.943 4.83-10.373 0-16.541-6.34-16.541-15.883 0-9.062 6.223-15.583 15.992-15.583 10.075 0 16.361 6.162 15.201 18.421h-23.499zm16.361-6.119c-.477-3.866-3.548-5.8-7.815-5.8-4.031 0-7.323 1.934-8.423 5.8h16.238zM205.781 33.704L205.781 58.098 215.913 46.141 224.825 46.141 224.825 46.565 212.559 60.156 226.539 75.374 226.539 75.917 217.565 75.917 205.781 62.448 205.781 75.917 198.335 75.917 198.335 33.704zM240.463 37.374v8.473h8.306v6.324h-8.377v12.864c0 2.825 1.589 4.24 3.906 4.24 1.254-.037 2.485-.348 3.603-.91L250 74.64c-1.963.807-4.063 1.237-6.188 1.266-6.532.24-10.806-3.443-10.806-10.87V52.17h-5.615v-6.34h5.615v-8.465l7.457.008z" transform="translate(-63.000000, -186.000000) translate(63.000000, 186.000000)"/>
                <path fill="#0DFF68" d="M16.365 29.146c-.217 1.424-1.56 2.404-2.999 2.19-1.44-.215-2.43-1.542-2.215-2.966.215-1.424 1.556-2.406 2.995-2.194.693.101 1.317.471 1.734 1.029.416.557.59 1.256.485 1.941M25.02 4.398c-.317 2.091-2.288 3.532-4.401 3.218-2.114-.314-3.57-2.264-3.253-4.355.317-2.09 2.287-3.532 4.401-3.218 1.016.15 1.929.694 2.539 1.51.61.818.867 1.84.715 2.845" transform="translate(-63.000000, -186.000000) translate(63.000000, 186.000000)"/>
                <path fill="#FFF" d="M58.207 16.909c-.96-.13-1.893.376-2.298 1.247l-19.986.105c-.229-.98-1.074-1.702-2.089-1.78-1.014-.08-1.963.501-2.344 1.435-.381.933-.106 2.003.68 2.643-.197 2.247-.456 6.908-.224 14.565-3.6 1.35-7.572 2.95-12.046 5.06C11.313 44.236 5.292 51.6 2.488 61.477 1.36 65.483.788 69.624.79 73.784c-.792.724-1.015 1.874-.548 2.836.466.963 1.512 1.511 2.58 1.353 1.066-.158 1.903-.986 2.064-2.042.16-1.055-.394-2.09-1.366-2.552.04-3.806.583-7.59 1.616-11.257.554-1.957 1.27-3.864 2.143-5.703.243-.507.75-.837 1.316-.858.566-.021 1.097.27 1.378.758l8.794 15.21c-.076.269-.1.55-.068.826.102 1.196 1.143 2.096 2.353 2.036 1.211-.06 2.156-1.058 2.137-2.257 5.07-4.183 8.276-8.595 10.015-13.758 1.163-3.456 2.165-8.127 1.638-18.847-.044-.889-.08-1.745-.112-2.571l1.864-.691c10.023-3.702 16.833-6.21 21.657-15.046 1.094-.154 1.903-1.085 1.893-2.178-.01-1.093-.838-2.01-1.934-2.143l-.003.009zm-45.33 31.447c1.765-1.78 3.765-3.317 5.945-4.57 1.127-.646 2.542-.532 3.548.287l5.102 4.118c.498.4.688 1.068.474 1.667-.214.599-.785 1-1.427 1.004l-12.556.064c-.614-.002-1.168-.368-1.405-.929-.237-.56-.111-1.207.319-1.641zm18.561 6.091c-.21 1.042-.484 2.07-.819 3.079-1.438 4.28-4.029 8.017-8.044 11.576-.332.294-.78.43-1.222.369-.442-.061-.835-.312-1.073-.685l-8.828-13.75c-.297-.462-.317-1.047-.052-1.528.265-.48.773-.78 1.327-.783l17.232-.092c.457.002.89.207 1.178.559.288.351.402.812.31 1.255h-.009zm.819-7.83c-.014.574-.357 1.09-.885 1.33-.527.24-1.147.161-1.596-.202l-5.31-4.29c-.41-.333-.615-.853-.541-1.372.073-.52.415-.964.902-1.172 2.014-.88 3.925-1.658 5.732-2.368.342-.135.73-.098 1.04.1.309.197.503.53.521.894v.121c.118 2.298.189 4.626.137 6.95v.009zm11.33-15.975c-2.347 1.045-4.976 2.017-7.945 3.116-.23.085-.487.055-.69-.082-.203-.136-.326-.361-.331-.604-.099-4.83 0-8.284.142-10.517.02-.278.193-.522.45-.635.257-.113.556-.077.778.095l7.916 6.08c.411.327.622.84.557 1.358-.065.518-.397.965-.877 1.181v.008zm11.025-8.64c-1.619 2.429-3.73 4.5-6.199 6.08-.545.356-1.26.33-1.777-.065l-8.246-6.359c-.312-.248-.434-.663-.305-1.039.13-.375.483-.63.884-.638l14.518-.083c.502.004.96.28 1.195.717.234.438.208.968-.07 1.38v.006zM48.296 45.094L48.301 75.917 55.742 75.917 55.742 45.237z" transform="translate(-63.000000, -186.000000) translate(63.000000, 186.000000)"/>
                <path fill="#0DFF68" d="M55.71 39.693c-.205 1.476-1.287 2.686-2.744 3.064-1.457.378-3-.149-3.911-1.335-.91-1.187-1.009-2.8-.249-4.086.76-1.286 2.229-1.993 3.72-1.79 2.036.278 3.46 2.133 3.183 4.147" transform="translate(-63.000000, -186.000000) translate(63.000000, 186.000000)"/>
            </g>
        </g>
    </g>
</svg>
