<svg xmlns="http://www.w3.org/2000/svg" width="36" height="36" viewBox="0 0 36 36">
    <g fill="none" fill-rule="evenodd">
        <g>
            <g>
                <g>
                    <path d="M0 0H36V36H0z" transform="translate(-40.000000, -570.000000) translate(16.000000, 554.000000) translate(24.000000, 16.000000)"/>
                    <path fill="#090253" fill-rule="nonzero" d="M23.83 18.44v-.533c-.002-2.056-1.668-3.723-3.725-3.725H8.396c-2.056.002-3.723 1.669-3.725 3.725v.532c-1.149-.006-2.172.727-2.535 1.817-.363 1.09.016 2.29.938 2.973v4.79c0 .882.715 1.597 1.597 1.597v2.661c0 .294.238.533.532.533h2.129c.294 0 .532-.239.532-.533v-2.66h12.773v2.66c0 .294.239.533.533.533h2.129c.294 0 .532-.239.532-.533v-2.66c.882 0 1.596-.716 1.596-1.598v-4.804c.917-.684 1.29-1.88.928-2.964-.363-1.085-1.38-1.815-2.524-1.812zM8.397 15.245h11.71c1.468.002 2.659 1.192 2.66 2.661v.758c-.968.423-1.595 1.379-1.596 2.436v1.61c-.458-.352-1.02-.544-1.597-.546H8.929c-.578.002-1.14.194-1.597.546v-1.61c.001-1.059-.626-2.017-1.597-2.438v-.756c.002-1.469 1.192-2.66 2.661-2.66zM21.17 28.552H7.332v-1.065H21.17v1.065zm0-2.13H7.332v-1.596c0-.882.715-1.597 1.597-1.597h10.644c.882 0 1.597.715 1.597 1.597v1.597zM4.139 28.02v-4.31c.175.035.353.053.532.053v-1.065c-.28 0-.556-.075-.799-.216-.667-.385-.967-1.19-.713-1.917.223-.642.832-1.07 1.512-1.06h.011c.131 0 .262.018.388.053.705.18 1.199.815 1.197 1.544v7.45H4.671c-.294 0-.532-.238-.532-.532zm2.66 3.726H5.736v-2.129H6.8v2.13zm15.967 0h-1.064v-2.129h1.064v2.13zm1.065-9.048v1.065c.179 0 .357-.018.532-.054v4.311c0 .294-.238.533-.532.533h-1.597V21.1c0-.882.715-1.597 1.597-1.597s1.596.715 1.596 1.597c0 .881-.714 1.596-1.596 1.596z" transform="translate(-40.000000, -570.000000) translate(16.000000, 554.000000) translate(24.000000, 16.000000)"/>
                    <path fill="#090253" fill-rule="nonzero" d="M16.912 20.568L17.976 20.568 17.976 19.504 19.041 19.504 19.041 18.439 17.976 18.439 17.976 17.375 16.912 17.375 16.912 18.439 15.847 18.439 15.847 19.504 16.912 19.504zM10.525 20.568L11.59 20.568 11.59 19.504 12.654 19.504 12.654 18.439 11.59 18.439 11.59 17.375 10.525 17.375 10.525 18.439 9.461 18.439 9.461 19.504 10.525 19.504z" transform="translate(-40.000000, -570.000000) translate(16.000000, 554.000000) translate(24.000000, 16.000000)"/>
                    <path fill="#00EA41" fill-rule="nonzero" d="M33.41 29.616h-2.128V15.778h1.597c.294 0 .532-.238.532-.532V3.537c0-.294-.238-.532-.532-.532H28.62c-.294 0-.532.238-.532.532v11.71c0 .293.238.531.532.531h1.597v13.838h-2.13c-.293 0-.532.238-.532.532v2.13c0 .293.239.532.533.532h5.322c.294 0 .532-.239.532-.533v-2.129c0-.294-.238-.532-.532-.532zM29.154 4.07h3.193v10.645h-3.193V4.069zm3.726 27.676H28.62v-1.064h4.258v1.064z" transform="translate(-40.000000, -570.000000) translate(16.000000, 554.000000) translate(24.000000, 16.000000)"/>
                    <path fill="#090253" fill-rule="nonzero" d="M7.332 11.52H21.17c.294 0 .532-.238.532-.532v-7.45c0-.295-.238-.533-.532-.533H7.332c-.294 0-.532.238-.532.532v7.451c0 .294.238.533.532.533zm.532-7.45h12.773v6.386H7.864V4.07z" transform="translate(-40.000000, -570.000000) translate(16.000000, 554.000000) translate(24.000000, 16.000000)"/>
                    <path fill="#090253" fill-rule="nonzero" d="M16.536 9.016L19.197 6.354 19.949 7.107 17.288 9.768zM14.406 8.483L17.068 5.822 17.82 6.575 15.159 9.235z" transform="translate(-40.000000, -570.000000) translate(16.000000, 554.000000) translate(24.000000, 16.000000)"/>
                </g>
            </g>
        </g>
    </g>
</svg>
