<svg width="36" height="36" xmlns="http://www.w3.org/2000/svg">
    <g fill="none" fill-rule="evenodd">
        <path d="M0 0h36v36H0z"/>
        <path d="M17.715 33A5.73 5.73 0 0 1 12 27.285a5.655 5.655 0 0 1 2.235-4.5V6.465a3.48 3.48 0 0 1 6.96 0V22.77a5.655 5.655 0 0 1 2.235 4.5A5.73 5.73 0 0 1 17.715 33zm0-28.425a1.905 1.905 0 0 0-1.905 1.89v16.71a.81.81 0 0 1-.36.66 4.125 4.125 0 1 0 4.5 0 .81.81 0 0 1-.36-.66V6.465a1.905 1.905 0 0 0-1.86-1.89h-.015z" fill="#090253" fill-rule="nonzero"/>
        <path d="M17.7 25.5a.72.72 0 0 1-.705-.72V13.5a.75.75 0 1 1 1.5 0v11.19a.72.72 0 0 1-.795.81z" fill="#0DFF68" fill-rule="nonzero"/>
        <path d="M17.7 10.83h-1.92a.78.78 0 0 1-.78-.78c0-.44.356-.795.795-.795H17.7c.44 0 .795.356.795.795a.78.78 0 0 1-.795.78zM17.7 15.48h-1.92a.795.795 0 1 1 0-1.59h1.92a.795.795 0 1 1 0 1.59zM17.7 20.115h-1.92a.795.795 0 0 1-.78-.795.78.78 0 0 1 .795-.78H17.7a.78.78 0 0 1 .795.78c0 .44-.356.795-.795.795z" fill="#090253" fill-rule="nonzero"/>
        <path d="M17.7 30.255a3.12 3.12 0 1 1 0-6.24 3.12 3.12 0 0 1 0 6.24zm0-4.8a1.68 1.68 0 1 0 1.695 1.68A1.68 1.68 0 0 0 17.7 25.5v-.045z" fill="#0DFF68" fill-rule="nonzero"/>
    </g>
</svg>
