<svg xmlns="http://www.w3.org/2000/svg" width="48" height="48" viewBox="0 0 48 48">
    <g fill="none" fill-rule="evenodd">
        <g>
            <g>
                <g>
                    <g>
                        <path d="M0 0H48V48H0z" transform="translate(-48.000000, -666.000000) translate(24.000000, 280.000000) translate(0.000000, 304.000000) translate(24.000000, 82.000000)"/>
                        <path fill="#00EA41" fill-rule="nonzero" d="M13.345 44c-.202-.004-.396-.082-.545-.218-.298-.31-.298-.8 0-1.11L37.764 17H27.273c-.273.007-.528-.132-.67-.364-.143-.233-.151-.524-.021-.763l5.709-11.31c.195-.386.662-.547 1.054-.363.187.093.328.257.393.455s.048.414-.047.6l-5.146 10.181h11.073c.312-.006.595.183.71.473.112.278.055.596-.146.818L13.909 43.818c-.158.13-.36.196-.564.182z" transform="translate(-48.000000, -666.000000) translate(24.000000, 280.000000) translate(0.000000, 304.000000) translate(24.000000, 82.000000)"/>
                        <path fill="#090253" fill-rule="nonzero" d="M8.91 43.527c-.198.004-.391-.06-.546-.182-.364-.27-.466-.772-.237-1.163l9.764-17.218H10.4c-.354-.026-.66-.255-.786-.587-.125-.332-.045-.706.204-.959L28.255 4.273c.319-.31.81-.356 1.181-.11.402.237.566.736.382 1.164l-6.982 13.618h8.182c.367.002.697.225.837.564.145.334.073.723-.182.982L9.563 43.255c-.173.174-.408.272-.654.272zm3.635-20.382h6.91c.327-.004.63.167.796.45.166.282.167.63.004.914l-7.037 12.364 15.655-16.11h-7.51c-.306.008-.594-.144-.763-.4-.156-.27-.156-.602 0-.872l4.8-9.636-12.855 13.29z" transform="translate(-48.000000, -666.000000) translate(24.000000, 280.000000) translate(0.000000, 304.000000) translate(24.000000, 82.000000)"/>
                    </g>
                </g>
            </g>
        </g>
    </g>
</svg>
