<svg xmlns="http://www.w3.org/2000/svg" xmlns:xlink="http://www.w3.org/1999/xlink" width="36" height="36" viewBox="0 0 36 36">
    <defs>
        <path id="u4engsroca" d="M0 0L5.843 0 5.843 30 0 30z"/>
    </defs>
    <g fill="none" fill-rule="evenodd">
        <g>
            <g>
                <g>
                    <g>
                        <g>
                            <path d="M0 0H36V36H0z" transform="translate(-201.000000, -494.000000) translate(24.000000, 280.000000) translate(0.000000, 112.000000) translate(177.000000, 77.000000) translate(0.000000, 25.000000)"/>
                            <path fill="#0DFF68" d="M16.103 17.999l3.824 3.218V19.83c0-.382.312-.691.696-.691h1.762V16.86h-1.762c-.384 0-.696-.31-.696-.692v-1.385l-3.824 3.215zm4.52 5.402c-.161 0-.321-.056-.45-.164l-5.597-4.71c-.156-.132-.245-.326-.245-.528 0-.203.089-.395.245-.528l5.598-4.708c.204-.175.498-.21.742-.1.246.114.404.36.404.629v2.186h1.761c.384 0 .696.308.696.691v3.661c0 .383-.312.691-.696.691H21.32v2.188c0 .27-.158.515-.404.628-.094.043-.194.064-.293.064z" transform="translate(-201.000000, -494.000000) translate(24.000000, 280.000000) translate(0.000000, 112.000000) translate(177.000000, 77.000000) translate(0.000000, 25.000000)"/>
                            <path fill="#090253" d="M16.74 12.96c-.385 0-.697-.31-.697-.69V5.911c0-.382.312-.691.697-.691.384 0 .696.31.696.691v6.357c0 .382-.312.692-.696.692M16.74 30.779c-.385 0-.697-.31-.697-.692v-6.386c0-.383.312-.691.697-.691.384 0 .696.308.696.691v6.386c0 .382-.312.692-.696.692" transform="translate(-201.000000, -494.000000) translate(24.000000, 280.000000) translate(0.000000, 112.000000) translate(177.000000, 77.000000) translate(0.000000, 25.000000)"/>
                            <g transform="translate(-201.000000, -494.000000) translate(24.000000, 280.000000) translate(0.000000, 112.000000) translate(177.000000, 77.000000) translate(0.000000, 25.000000) translate(25.656505, 3.000000)">
                                <mask id="77g3frjxxb" fill="#fff">
                                    <use xlink:href="#u4engsroca"/>
                                </mask>
                                <path fill="#090253" d="M1.392 1.818V28.19l3.06-1.515V3.354l-3.06-1.536zM.696 30c-.128 0-.255-.036-.366-.103-.205-.126-.33-.349-.33-.588V.692C0 .452.125.229.331.104c.206-.128.463-.138.679-.029l4.453 2.236c.234.118.381.357.381.618v24.174c0 .262-.149.502-.384.618l-4.453 2.206c-.1.049-.205.073-.31.073z" mask="url(#77g3frjxxb)"/>
                            </g>
                            <path fill="#090253" d="M26.352 30.795H6.696c-.385 0-.696-.31-.696-.692V5.93c0-.383.31-.691.696-.691h19.656c.385 0 .697.308.697.691 0 .382-.312.692-.697.692H7.392v22.79h18.96c.385 0 .697.31.697.692 0 .382-.312.692-.697.692" transform="translate(-201.000000, -494.000000) translate(24.000000, 280.000000) translate(0.000000, 112.000000) translate(177.000000, 77.000000) translate(0.000000, 25.000000)"/>
                        </g>
                    </g>
                </g>
            </g>
        </g>
    </g>
</svg>
