<svg xmlns="http://www.w3.org/2000/svg" width="24" height="24" viewBox="0 0 24 24">
    <g fill="none" fill-rule="evenodd">
        <g>
            <g>
                <g>
                    <path d="M0 0H24V24H0z" transform="translate(-67.000000, -292.000000) translate(24.000000, 280.000000) translate(43.000000, 12.000000)"/>
                    <path fill="#00EA41" fill-rule="nonzero" d="M15.401 15.125h-2.146c-.507 0-.92.42-.92.938v1.875c0 .516.413.937.92.937H15.4c.507 0 .92-.42.92-.938v-1.875c0-.516-.413-.937-.92-.937zm.307.938v.625h-1.074v-.938h.767c.169 0 .307.14.307.313zm-2.453-.313h.766v.938h-1.073v-.625c0-.173.138-.313.307-.313zm-.307 2.188v-.625h1.073v.937h-.766c-.17 0-.307-.14-.307-.313zm2.453.312h-.767v-.938h1.074v.625c0 .173-.138.313-.307.313z" transform="translate(-67.000000, -292.000000) translate(24.000000, 280.000000) translate(43.000000, 12.000000)"/>
                    <path fill="#090253" fill-rule="nonzero" d="M9.882 17.938c-.17 0-.306.14-.306.312v.313c0 .172.137.312.306.312.17 0 .307-.14.307-.313v-.312c0-.173-.138-.313-.307-.313z" transform="translate(-67.000000, -292.000000) translate(24.000000, 280.000000) translate(43.000000, 12.000000)"/>
                    <path fill="#090253" fill-rule="nonzero" d="M17.394 5.75C18.83 5.75 20 4.558 20 3.094v-.781C20 2.14 19.863 2 19.693 2h-1.38c-.994 0-1.86.57-2.299 1.408C15.575 2.57 14.71 2 13.714 2h-1.38c-.168 0-.306.14-.306.313v.78c0 1.465 1.17 2.657 2.606 2.657h1.074v.938H14.48c-.17 0-.306.14-.306.312 0 .173.137.313.306.313v.672l-1.362-1.15c-.81-.682-1.985-.682-2.795 0l-5.99 5.056c-.392.33-.447.921-.122 1.32l.195.24c.3.369.806.438 1.183.207v7.717h-.614c-.169 0-.306.14-.306.313 0 .172.137.312.306.312h13.49c.17 0 .308-.14.308-.313 0-.172-.138-.312-.307-.312h-.613v-7.718c.169.104.363.15.56.13.439-.042.62-.332.818-.576.324-.399.27-.99-.122-1.32l-1.563-1.319v-3.26c.17 0 .307-.14.307-.312 0-.173-.138-.313-.307-.313h-1.226V5.75h1.073zM7.736 21.375v-5.313c0-.172.137-.312.306-.312h2.453c.17 0 .307.14.307.313v5.312H7.736zm3.68 0v-5.313c0-.516-.414-.937-.92-.937H8.041c-.507 0-.92.42-.92.938v5.312h-.92v-8.221l5.324-4.492c.113-.096.278-.096.391 0l5.324 4.492v8.221h-5.826zm7.413-8.791c.015.164-.074.234-.265.47-.109.133-.302.15-.432.04L12.308 8.18c-.34-.286-.833-.287-1.173 0l-5.824 4.915c-.13.11-.323.092-.432-.042-.198-.245-.28-.307-.264-.469.007-.083.046-.158.11-.211l5.99-5.056c.583-.492 1.43-.492 2.013 0 2.628 2.218 3.32 2.801 5.99 5.056.064.053.103.128.11.211zm-1.895-2.529l-1.84-1.552v-1.19h1.84v2.742zm1.38-7.43h1.073v.469c0 1.12-.894 2.031-1.993 2.031h-.533l1.189-1.01c.13-.11.148-.307.04-.44-.11-.133-.302-.15-.433-.04L16.321 4.77v-.114c0-1.12.894-2.031 1.993-2.031zm-5.672.469v-.469h1.073c1.099 0 1.993.911 1.993 2.031v.114L14.37 3.635c-.13-.11-.324-.093-.432.04-.108.133-.09.33.04.44l1.188 1.01h-.533c-1.098 0-1.992-.911-1.992-2.031z" transform="translate(-67.000000, -292.000000) translate(24.000000, 280.000000) translate(43.000000, 12.000000)"/>
                </g>
            </g>
        </g>
    </g>
</svg>
