<svg xmlns="http://www.w3.org/2000/svg" xmlns:xlink="http://www.w3.org/1999/xlink" width="24" height="24" viewBox="0 0 24 24">
    <defs>
        <circle id="lu944hddqa" cx="12" cy="12" r="12"/>
    </defs>
    <g fill="none" fill-rule="evenodd">
        <g>
            <g>
                <g transform="translate(-32.000000, -319.000000) translate(16.000000, 116.000000) translate(16.000000, 203.000000)">
                    <mask id="9tdokx8x3b" fill="#fff">
                        <use xlink:href="#lu944hddqa"/>
                    </mask>
                    <use fill="#00EA41" xlink:href="#lu944hddqa"/>
                    <g fill="#090253" fill-rule="nonzero" mask="url(#9tdokx8x3b)">
                        <g>
                            <path d="M6.55 11.784c-.087.575-.624.972-1.2.885-.575-.087-.972-.623-.885-1.199.086-.576.622-.973 1.198-.887.277.04.526.19.693.416.167.225.236.508.194.785M10.012 1.778c-.127.846-.915 1.428-1.76 1.301-.846-.127-1.429-.915-1.302-1.76C7.077.473 7.865-.11 8.71.017c.407.061.772.281 1.016.611.244.33.347.744.286 1.15M23.285 6.836c-.384-.052-.757.153-.92.505l-7.993.042c-.091-.396-.43-.688-.835-.72-.406-.032-.785.203-.938.58-.152.378-.042.81.272 1.07-.078.908-.182 2.792-.09 5.888-1.44.546-3.028 1.192-4.817 2.046C4.529 17.884 2.121 20.86 1 24.855c-.451 1.62-.68 3.294-.679 4.976-.317.292-.406.758-.22 1.147.187.389.605.61 1.032.546.427-.064.762-.398.826-.825.064-.427-.157-.845-.546-1.032.015-1.539.233-3.069.646-4.551.221-.791.508-1.562.857-2.306.097-.205.3-.338.526-.347.227-.008.44.11.551.307l3.518 6.15c-.03.108-.04.221-.027.333.04.483.457.847.94.823.485-.024.863-.427.855-.912 2.028-1.691 3.31-3.475 4.006-5.562.465-1.398.866-3.286.655-7.62-.018-.36-.032-.706-.045-1.04l.746-.28c4.009-1.496 6.732-2.51 8.661-6.082.438-.062.762-.439.758-.88-.004-.443-.335-.813-.774-.867l-.001.003zM5.155 19.55c.706-.72 1.506-1.34 2.378-1.847.45-.262 1.016-.215 1.419.116l2.04 1.665c.2.162.275.431.19.674-.086.242-.314.404-.57.405l-5.022.027c-.246-.001-.468-.15-.562-.376-.095-.227-.045-.488.127-.664zm7.424 2.463c-.085.421-.194.837-.328 1.245-.575 1.73-1.611 3.24-3.217 4.68-.133.119-.312.174-.489.149-.177-.025-.334-.126-.43-.277l-3.53-5.559c-.119-.187-.127-.423-.02-.618.105-.194.309-.315.53-.316l6.892-.038c.183.001.356.084.471.226.115.142.16.329.124.508h-.003zm.327-3.166c-.006.232-.143.44-.354.538-.21.097-.458.065-.638-.082L9.79 17.57c-.164-.135-.246-.345-.216-.555.03-.21.166-.39.36-.474.806-.356 1.57-.67 2.293-.957.137-.054.292-.04.416.04s.201.215.209.362v.049c.046.929.075 1.87.054 2.81v.003zm4.532-6.458c-.94.422-1.99.815-3.178 1.26-.092.034-.195.022-.276-.034-.081-.055-.13-.146-.132-.244-.04-1.953 0-3.35.056-4.252.008-.112.078-.21.18-.257.103-.045.223-.03.312.039l3.166 2.458c.164.132.249.34.222.549-.026.21-.158.39-.35.477v.004zm4.41-3.494c-.648.982-1.493 1.82-2.48 2.459-.218.144-.504.133-.71-.026l-3.299-2.571c-.125-.1-.174-.269-.122-.42.052-.152.193-.255.354-.258l5.806-.034c.2.001.384.113.478.29.094.177.083.391-.028.558v.002zM22.286 16.048c-.082.597-.515 1.086-1.097 1.239-.583.153-1.2-.06-1.564-.54-.365-.48-.404-1.132-.1-1.652.304-.52.891-.806 1.488-.724.814.113 1.384.863 1.273 1.677" transform="translate(0.000000, -3.000000)"/>
                        </g>
                    </g>
                </g>
            </g>
        </g>
    </g>
</svg>
