<svg xmlns="http://www.w3.org/2000/svg" width="36" height="36" viewBox="0 0 36 36">
    <g fill="none" fill-rule="evenodd">
        <g>
            <g>
                <g>
                    <path d="M0 0H36V36H0z" transform="translate(-40.000000, -654.000000) translate(16.000000, 638.000000) translate(24.000000, 16.000000)"/>
                    <path fill="#090253" fill-rule="nonzero" d="M32.516 23.25h-.484v-3.818c-.001-1.054-.867-1.908-1.935-1.91V9.41c-.002-1.054-.867-1.908-1.936-1.909H7.84c-1.069.001-1.934.855-1.936 1.91v8.113c-1.068.001-1.934.855-1.935 1.909v3.818h-.484c-.267 0-.484.214-.484.477v1.91c0 .263.217.477.484.477h.484v1.909c0 .263.216.477.484.477h1.451c.23 0 .43-.16.474-.384l.407-2.002h22.432l.407 2.002c.045.223.243.384.474.384h1.451c.268 0 .484-.214.484-.477v-1.91h.484c.267 0 .484-.213.484-.477v-1.909c0-.263-.217-.477-.484-.477zm-27.58-3.818c0-.527.433-.954.967-.955h24.194c.534.001.967.428.968.955v3.818H4.935v-3.818zm.57 8.113h-.57v-1.431h.86l-.29 1.431zm25.559 0h-.571l-.29-1.431h.86v1.431zm.967-3.34v.954H3.968v-.954h28.064zm-3.87-15.75c.533 0 .966.427.967.954v8.114h-.968v-1.91c-.001-1.053-.867-1.907-1.935-1.908h-5.807c-1.068 0-1.934.855-1.935 1.909v1.909h-.968v-1.91c-.001-1.053-.867-1.907-1.935-1.908H9.774c-1.068 0-1.934.855-1.935 1.909v1.909H6.87V9.409c0-.527.434-.954.968-.954H28.16zm-1.936 6.204c.534 0 .967.428.968.955v1.909h-7.742v-1.91c0-.526.433-.953.967-.954h5.807zm-10.645 0c.534 0 .967.428.967.955v1.909H8.806v-1.91c.001-.526.434-.953.968-.954h5.807z" transform="translate(-40.000000, -654.000000) translate(16.000000, 638.000000) translate(24.000000, 16.000000)"/>
                    <g fill="#00EA41">
                        <path d="M7.743 0C8.81.001 9.677.855 9.678 1.91v1.905H8.71V1.909c0-.49-.374-.892-.855-.948L7.743.955H1.936c-.534 0-.967.427-.968.954v1.906H0V1.909C.003.905.788.083 1.786.006L1.936 0zm10.645 0c1.068.001 1.934.855 1.935 1.91v1.905h-.968V1.909c0-.49-.373-.892-.854-.948l-.113-.006H12.58c-.534 0-.967.427-.967.954l-.001 1.906h-.968V1.909C10.648.905 11.434.083 12.43.006L12.581 0z" transform="translate(-40.000000, -654.000000) translate(16.000000, 638.000000) translate(24.000000, 16.000000) translate(7.837968, 13.704545)"/>
                    </g>
                </g>
            </g>
        </g>
    </g>
</svg>
