<svg xmlns="http://www.w3.org/2000/svg" width="24" height="24" viewBox="0 0 24 24">
    <g fill="none" fill-rule="evenodd">
        <g>
            <g>
                <g>
                    <path d="M24 24L0 24 0 0 24 0z" opacity=".87" transform="translate(-319.000000, -576.000000) translate(16.000000, 554.000000) translate(303.000000, 22.000000)"/>
                    <path fill="#00EA41" fill-rule="nonzero" d="M7.38 21.01c.49.49 1.28.49 1.77 0l8.31-8.31c.39-.39.39-1.02 0-1.41L9.15 2.98c-.49-.49-1.28-.49-1.77 0s-.49 1.28 0 1.77L14.62 12l-7.25 7.25c-.48.48-.48 1.28.01 1.76z" transform="translate(-319.000000, -576.000000) translate(16.000000, 554.000000) translate(303.000000, 22.000000)"/>
                </g>
            </g>
        </g>
    </g>
</svg>
