<svg xmlns="http://www.w3.org/2000/svg" width="24" height="24" viewBox="0 0 24 24">
    <g fill="none" fill-rule="evenodd">
        <g>
            <g>
                <g>
                    <path d="M0 0H24V24H0z" transform="translate(-285.000000, -292.000000) translate(24.000000, 280.000000) translate(261.000000, 12.000000)"/>
                    <path fill="#090253" fill-rule="nonzero" d="M20.999 10.722V4.92c0-.158-.103-.298-.256-.347l-8.004-2.556c-.081-.026-.165-.023-.24.004-.074-.027-.158-.03-.239-.004L4.257 4.574c-.153.049-.256.189-.256.347v5.787c-.003.084-.228 8.5 8.307 11.273.038.013.077.019.117.019h.15c.04 0 .08-.006.117-.019 8.535-2.774 8.31-11.189 8.307-11.26zm-8.484 10.55h-.03c-7.942-2.616-7.756-10.214-7.744-10.55V5.185L12.49 2.71c.004 0 .007-.002.01-.003.004 0 .008.002.011.003l7.748 2.475v5.55c.004.08.214 7.914-7.743 10.537z" transform="translate(-285.000000, -292.000000) translate(24.000000, 280.000000) translate(261.000000, 12.000000)"/>
                    <path fill="#090253" fill-rule="nonzero" d="M18.687 5.955L12.68 3.969c-.052-.017-.106-.021-.155-.017-.05-.004-.104 0-.156.017L6.363 5.955c-.15.05-.252.189-.252.345v4.52c.002.065.302 6.531 6.28 8.807.043.016.088.024.134.024.045 0 .09-.008.133-.024 5.978-2.276 6.279-8.742 6.281-8.82V6.3c0-.156-.102-.295-.252-.345zm-6.162 12.941c-5.387-2.144-5.672-8.042-5.674-8.088V6.562l5.674-1.877 5.673 1.877v4.232c-.002.06-.287 5.958-5.673 8.102z" transform="translate(-285.000000, -292.000000) translate(24.000000, 280.000000) translate(261.000000, 12.000000)"/>
                    <path fill="#00EA41" fill-rule="nonzero" d="M16.764 9.312c-.157-.13-.39-.108-.521.046l-4.287 5.045-2.765-2.853c-.142-.146-.375-.15-.523-.013-.148.139-.154.37-.013.514l3.051 3.15c.07.072.167.113.269.113h.012c.105-.004.204-.052.272-.131l4.552-5.359c.131-.154.11-.384-.047-.512z" transform="translate(-285.000000, -292.000000) translate(24.000000, 280.000000) translate(261.000000, 12.000000)"/>
                </g>
            </g>
        </g>
    </g>
</svg>
