<svg width="36" height="36" xmlns="http://www.w3.org/2000/svg">
    <g fill="none" fill-rule="evenodd">
        <path d="M0 0h36v36H0z"/>
        <path d="M8.715 33A5.73 5.73 0 0 1 3 27.285a5.655 5.655 0 0 1 2.235-4.5V6.465a3.48 3.48 0 0 1 6.96 0V22.77a5.655 5.655 0 0 1 2.235 4.5A5.73 5.73 0 0 1 8.715 33zm0-28.425a1.905 1.905 0 0 0-1.905 1.89v16.71a.81.81 0 0 1-.36.66 4.125 4.125 0 1 0 4.5 0 .81.81 0 0 1-.36-.66V6.465a1.905 1.905 0 0 0-1.86-1.89h-.015z" fill="#090253" fill-rule="nonzero"/>
        <path d="M8.7 25.5a.72.72 0 0 1-.705-.72V13.5a.75.75 0 1 1 1.5 0v11.19a.72.72 0 0 1-.795.81z" fill="#0DFF68" fill-rule="nonzero"/>
        <path d="M8.7 10.83H6.78a.78.78 0 0 1-.78-.78c0-.44.356-.795.795-.795H8.7c.44 0 .795.356.795.795a.78.78 0 0 1-.795.78zM8.7 15.48H6.78a.795.795 0 1 1 0-1.59H8.7a.795.795 0 1 1 0 1.59zM8.7 20.115H6.78A.795.795 0 0 1 6 19.32a.78.78 0 0 1 .795-.78H8.7a.78.78 0 0 1 .795.78c0 .44-.356.795-.795.795z" fill="#090253" fill-rule="nonzero"/>
        <path d="M8.7 30.255a3.12 3.12 0 1 1 0-6.24 3.12 3.12 0 0 1 0 6.24zm0-4.8a1.68 1.68 0 1 0 1.695 1.68A1.68 1.68 0 0 0 8.7 25.5v-.045z" fill="#0DFF68" fill-rule="nonzero"/>
        <path d="M30.075 25.83a2.88 2.88 0 0 1-2.88-2.88c0-1.32 1.695-3.525 2.22-4.17a.84.84 0 0 1 1.335 0c.525.72 2.25 2.85 2.25 4.17a2.88 2.88 0 0 1-2.925 2.88zm0-5.07a6.495 6.495 0 0 0-1.155 2.19 1.17 1.17 0 0 0 2.325 0 6.33 6.33 0 0 0-1.17-2.19zM24.96 16.905a4.5 4.5 0 0 1-4.5-4.5c0-2.19 3.165-6.21 3.795-6.99a.9.9 0 0 1 1.35 0c.63.78 3.795 4.8 3.795 6.99a4.5 4.5 0 0 1-4.44 4.5zm0-9.51c-1.305 1.74-2.745 4.05-2.745 5.04a2.745 2.745 0 1 0 5.49 0c0-.99-1.44-3.3-2.745-5.04zM20.565 28.845a4.05 4.05 0 0 1-4.065-4.05c0-1.965 2.82-5.55 3.375-6.24a.9.9 0 0 1 1.35 0c.555.69 3.375 4.275 3.375 6.24a4.05 4.05 0 0 1-4.035 4.05zm0-8.34a12 12 0 0 0-2.325 4.29 2.325 2.325 0 0 0 4.65 0 11.775 11.775 0 0 0-2.325-4.29z" fill="#090253" fill-rule="nonzero"/>
    </g>
</svg>
