<svg width="36" height="36" xmlns="http://www.w3.org/2000/svg">
    <g fill="none" fill-rule="evenodd">
        <path d="M0 0h36v36H0z"/>
        <path d="M22.63 25.604h-8.608a.652.652 0 0 1-.652-.652 4.148 4.148 0 0 0-1.227-2.922 8.635 8.635 0 0 1-2.478-6.808 8.752 8.752 0 0 1 8.035-7.93 8.674 8.674 0 0 1 6.757 14.817 3.913 3.913 0 0 0-1.161 2.817c0 .37-.296.671-.666.678zM14.622 24.3h7.395c.131-1.18.66-2.28 1.5-3.117a7.37 7.37 0 0 0-5.726-12.587 7.357 7.357 0 0 0-4.748 12.521 5.491 5.491 0 0 1 1.579 3.183z" fill="#090253" fill-rule="nonzero"/>
        <path d="M14.909 7.396a.652.652 0 0 1-.626-.483l-.64-1.696a.693.693 0 1 1 1.305-.47l.626 1.736a.678.678 0 0 1-.665.913zM9.783 11.883a.77.77 0 0 1-.34-.092l-1.604-.965a.678.678 0 0 1 .678-1.174l1.592.952a.691.691 0 0 1-.34 1.305l.014-.026zM21.717 7.396a.743.743 0 0 1-.234 0 .678.678 0 0 1-.405-.874l.626-1.774a.693.693 0 0 1 1.305.47l-.652 1.695a.691.691 0 0 1-.64.483zM26.843 11.883a.691.691 0 0 1-.339-1.305l1.605-.913a.678.678 0 0 1 .678 1.174l-1.604.926a.77.77 0 0 1-.34.118z" fill="#0DFF68" fill-rule="nonzero"/>
        <path d="M18.313 32.074a4.565 4.565 0 0 1-4.565-4.565c0-.36.292-.652.652-.652h7.826c.36 0 .652.292.652.652a4.565 4.565 0 0 1-4.565 4.565zm-3.196-3.913a3.26 3.26 0 0 0 6.392 0h-6.392z" fill="#090253" fill-rule="nonzero"/>
        <path d="M12.952 16.683a.678.678 0 0 1-.678-.64 5.96 5.96 0 0 1 1.174-3.573.68.68 0 1 1 1.095.808 4.591 4.591 0 0 0-.913 2.765.678.678 0 0 1-.678.64z" fill="#0DFF68" fill-rule="nonzero"/>
    </g>
</svg>
