<svg xmlns="http://www.w3.org/2000/svg" width="64" height="64" viewBox="0 0 64 64">
    <g fill="none" fill-rule="evenodd">
        <g fill-rule="nonzero">
            <g>
                <g>
                    <path fill="#4B4B97" d="M50 42H14C6.28 42 0 35.72 0 28s6.28-14 14-14c.71 0 1.412.053 2.105.157C17.023 6.2 23.8 0 32 0s14.978 6.2 15.895 14.157C48.587 14.053 49.29 14 50 14c7.72 0 14 6.28 14 14s-6.28 14-14 14zM14 18C8.486 18 4 22.486 4 28s4.486 10 10 10h36c5.514 0 10-4.486 10-10s-4.486-10-10-10c-1.15 0-2.277.193-3.348.573-.63.224-1.331.118-1.867-.283-.536-.4-.836-1.043-.8-1.71.01-.178.015-.368.015-.58 0-6.617-5.383-12-12-12S20 9.383 20 16c0 .212.005.401.014.58.037.668-.263 1.31-.799 1.71-.536.401-1.237.507-1.867.283C16.277 18.193 15.15 18 14 18z" transform="translate(-240.000000, -189.000000) translate(48.000000, 189.000000) translate(192.000125, 0.000000)"/>
                    <path fill="#00EA41" d="M26.998 53c-.381 0-.767-.109-1.107-.336-.92-.613-1.168-1.854-.555-2.773l2-3c.613-.92 1.855-1.168 2.773-.555.92.613 1.168 1.854.555 2.773l-2 3c-.385.578-1.02.891-1.666.891zM9.998 53c-.381 0-.766-.109-1.107-.336-.92-.613-1.168-1.854-.555-2.773l2-3c.612-.92 1.854-1.168 2.773-.555.92.613 1.168 1.854.555 2.773l-2 3c-.385.578-1.02.891-1.666.891zM45.998 53c-.381 0-.767-.109-1.107-.336-.92-.613-1.168-1.854-.555-2.773l2-3c.613-.92 1.854-1.168 2.773-.555.92.613 1.168 1.854.555 2.773l-2 3c-.385.578-1.02.891-1.666.891zM26.998 64c-.381 0-.767-.109-1.107-.336-.92-.613-1.168-1.854-.555-2.773l2-3c.613-.92 1.855-1.168 2.773-.555.92.613 1.168 1.854.555 2.773l-2 3c-.385.578-1.02.891-1.666.891zM35.998 57c-.381 0-.767-.109-1.107-.336-.92-.613-1.168-1.854-.555-2.773l2-3c.613-.92 1.855-1.168 2.773-.555.92.613 1.168 1.854.555 2.773l-2 3c-.385.578-1.02.891-1.666.891zM44.998 64c-.381 0-.767-.109-1.107-.336-.92-.613-1.168-1.854-.555-2.773l2-3c.613-.92 1.854-1.168 2.773-.555.92.613 1.168 1.854.555 2.773l-2 3c-.385.578-1.02.891-1.666.891zM17.998 57c-.381 0-.767-.109-1.107-.336-.92-.613-1.168-1.854-.555-2.773l2-3c.613-.92 1.854-1.168 2.773-.555.92.613 1.168 1.854.555 2.773l-2 3c-.385.578-1.02.891-1.666.891zM8.998 64c-.381 0-.766-.109-1.107-.336-.92-.613-1.168-1.854-.555-2.773l2-3c.612-.92 1.854-1.168 2.773-.555.92.613 1.168 1.854.555 2.773l-2 3c-.385.578-1.02.891-1.666.891z" transform="translate(-240.000000, -189.000000) translate(48.000000, 189.000000) translate(192.000125, 0.000000)"/>
                </g>
            </g>
        </g>
    </g>
</svg>
