<svg width="61" height="37" xmlns="http://www.w3.org/2000/svg">
    <path d="M55.639 0H36.576c-2.96 0-5.361 2.389-5.361 5.335 0 2.947 2.4 5.335 5.361 5.335h6.12L32.357 20.958l-8.123-8.084a5.38 5.38 0 0 0-7.582 0L1.57 27.882A5.322 5.322 0 0 0 0 31.654c0 4.753 5.775 7.134 9.152 3.773l11.291-11.235 8.123 8.082a5.38 5.38 0 0 0 7.582 0l14.13-14.06v6.09c0 2.947 2.4 5.335 5.36 5.335C58.6 29.64 61 27.251 61 24.304V5.335C61 2.39 58.6 0 55.639 0zm0 26.082a1.783 1.783 0 0 1-1.787-1.778V13.921c0-1.584-1.925-2.377-3.051-1.257L33.62 29.759a1.793 1.793 0 0 1-2.528 0l-9.386-9.34a1.793 1.793 0 0 0-2.528 0L6.625 32.912c-1.126 1.12-3.05.327-3.05-1.258 0-.471.187-.924.523-1.257l15.081-15.009a1.793 1.793 0 0 1 2.528 0l9.386 9.342c.698.694 1.83.695 2.528 0l14.653-14.58c1.126-1.121.328-3.036-1.264-3.036H36.576a1.783 1.783 0 0 1-1.787-1.779c0-.982.8-1.778 1.787-1.778H55.64c.987 0 1.787.796 1.787 1.778v18.97c0 .981-.8 1.777-1.787 1.777z" fill="#B67E00" fill-rule="nonzero"/>
</svg>
