<svg width="24" height="24" xmlns="http://www.w3.org/2000/svg">
    <g fill="none" fill-rule="evenodd" opacity=".697">
        <path d="M0 0h24v24H0z"/>
        <path d="M12.673 18.59h-.91a5.846 5.846 0 0 1-5.854-5.835V9.618A1.264 1.264 0 0 1 5 8.364v-.1c0-.693.562-1.255 1.255-1.255H18.19a1.255 1.255 0 0 1 1.255 1.255v.1a1.255 1.255 0 0 1-.91 1.218v3.136a5.845 5.845 0 0 1-5.863 5.873zM6.818 9.656v3.1a4.927 4.927 0 0 0 4.927 4.927h.91a4.927 4.927 0 0 0 4.927-4.927V9.2a.464.464 0 0 1 .454-.455h.137a.345.345 0 0 0 .363-.381v-.1a.345.345 0 0 0-.345-.346H6.255a.345.345 0 0 0-.346.346v.1c0 .19.155.345.346.345h5.6a.455.455 0 0 1 0 .91l-5.037.036z" fill="#090253" fill-rule="nonzero"/>
        <path d="M9.445 7.918h-1.89a.464.464 0 0 1-.455-.454V3.4a1.4 1.4 0 1 1 2.8 0v4.055a.455.455 0 0 1-.455.463zM8.01 7.01h.982V3.373a.49.49 0 0 0-.982.027v3.61zM16.89 7.918H15a.455.455 0 0 1-.455-.454V3.4a1.4 1.4 0 0 1 2.8 0v4.055a.464.464 0 0 1-.454.463zm-1.435-.909h.981V3.373a.49.49 0 0 0-.527-.464.49.49 0 0 0-.49.491l.036 3.61zM13.518 22h-2.582a.455.455 0 0 1-.454-.455v-3.409c0-.25.203-.454.454-.454h2.582c.25.005.45.205.455.454v3.41a.455.455 0 0 1-.455.454zm-2.154-.91h1.7v-2.5h-1.7v2.5z" fill="#090253" fill-rule="nonzero"/>
        <path d="M10.755 16.373a.49.49 0 0 1-.273-.091.464.464 0 0 1-.127-.591l1.018-1.818h-.418a.464.464 0 0 1-.419-.273.445.445 0 0 1 .091-.49l2.455-2.546a.455.455 0 0 1 .736.527l-.636 1.345h.545a.455.455 0 0 1 .328.773l-2.973 3.027a.464.464 0 0 1-.327.137z" fill="#0DFF68" fill-rule="nonzero"/>
        <path d="M18.055 9.655H15a.455.455 0 0 1 0-.91h3.055a.455.455 0 0 1 0 .91z" fill="#090253" fill-rule="nonzero"/>
    </g>
</svg>
